<?xml version="1.0" encoding="utf-8" standalone="no"?>
<!DOCTYPE svg PUBLIC "-//W3C//DTD SVG 1.1//EN"
  "http://www.w3.org/Graphics/SVG/1.1/DTD/svg11.dtd">
<svg xmlns:xlink="http://www.w3.org/1999/xlink" width="642.688289pt" height="397.660625pt" viewBox="0 0 642.688289 397.660625" xmlns="http://www.w3.org/2000/svg" version="1.1">
 <metadata>
  <rdf:RDF xmlns:dc="http://purl.org/dc/elements/1.1/" xmlns:cc="http://creativecommons.org/ns#" xmlns:rdf="http://www.w3.org/1999/02/22-rdf-syntax-ns#">
   <cc:Work>
    <dc:type rdf:resource="http://purl.org/dc/dcmitype/StillImage"/>
    <dc:date>2026-05-05T00:08:26.680227</dc:date>
    <dc:format>image/svg+xml</dc:format>
    <dc:creator>
     <cc:Agent>
      <dc:title>Matplotlib v3.9.2, https://matplotlib.org/</dc:title>
     </cc:Agent>
    </dc:creator>
   </cc:Work>
  </rdf:RDF>
 </metadata>
 <defs>
  <style type="text/css">*{stroke-linejoin: round; stroke-linecap: butt}</style>
 </defs>
 <g id="figure_1">
  <g id="patch_1">
   <path d="M 0 397.660625 
L 642.688289 397.660625 
L 642.688289 0 
L 0 0 
z
" style="fill: #ffffff"/>
  </g>
  <g id="axes_1">
   <g id="patch_2">
    <path d="M 72.54 339.84 
L 630.54 339.84 
L 630.54 7.2 
L 72.54 7.2 
z
" style="fill: #ffffff"/>
   </g>
   <g id="matplotlib.axis_1">
    <g id="xtick_1">
     <g id="line2d_1">
      <path d="M 89.381562 339.84 
L 89.381562 7.2 
" clip-path="url(#pc20a4b08ad)" style="fill: none; stroke: #808080; stroke-opacity: 0.35; stroke-width: 0.4; stroke-linecap: square"/>
     </g>
     <g id="line2d_2">
      <defs>
       <path id="me8b9a5f8a3" d="M 0 0 
L 0 3.5 
" style="stroke: #000000; stroke-width: 0.8"/>
      </defs>
      <g>
       <use xlink:href="#me8b9a5f8a3" x="89.381562" y="339.84" style="stroke: #000000; stroke-width: 0.8"/>
      </g>
     </g>
     <g id="text_1">
      <!-- 0.1 -->
      <g transform="translate(75.631562 361.865312) scale(0.22 -0.22)">
       <defs>
        <path id="NimbusRoman-Regular-30" d="M 1626 4326 
C 1274 4326 1005 4224 768 3994 
C 397 3635 154 2899 154 2150 
C 154 1446 365 704 666 346 
C 902 64 1229 -90 1600 -90 
C 1926 -90 2202 19 2432 243 
C 2803 595 3046 1338 3046 2112 
C 3046 3424 2464 4326 1626 4326 
z
M 1606 4160 
C 2144 4160 2432 3437 2432 2099 
C 2432 762 2150 77 1600 77 
C 1050 77 768 762 768 2093 
C 768 3456 1056 4160 1606 4160 
z
" transform="scale(0.015625)"/>
        <path id="NimbusRoman-Regular-2e" d="M 800 640 
C 608 640 448 480 448 275 
C 448 90 608 -70 794 -70 
C 992 -70 1158 83 1158 275 
C 1158 474 992 640 800 640 
z
" transform="scale(0.015625)"/>
        <path id="NimbusRoman-Regular-31" d="M 755 0 
L 2522 0 
L 2522 96 
C 2029 96 1920 166 1914 474 
L 1914 4314 
L 1862 4326 
L 710 3744 
L 710 3654 
C 960 3750 1114 3795 1171 3795 
C 1306 3795 1363 3699 1363 3494 
L 1363 595 
C 1350 192 1242 102 755 96 
L 755 0 
z
" transform="scale(0.015625)"/>
       </defs>
       <use xlink:href="#NimbusRoman-Regular-30"/>
       <use xlink:href="#NimbusRoman-Regular-2e" x="49.999985"/>
       <use xlink:href="#NimbusRoman-Regular-31" x="74.999969"/>
      </g>
     </g>
    </g>
    <g id="xtick_2">
     <g id="line2d_3">
      <path d="M 263.167138 339.84 
L 263.167138 7.2 
" clip-path="url(#pc20a4b08ad)" style="fill: none; stroke: #808080; stroke-opacity: 0.35; stroke-width: 0.4; stroke-linecap: square"/>
     </g>
     <g id="line2d_4">
      <g>
       <use xlink:href="#me8b9a5f8a3" x="263.167138" y="339.84" style="stroke: #000000; stroke-width: 0.8"/>
      </g>
     </g>
     <g id="text_2">
      <!-- 1.0 -->
      <g transform="translate(249.417138 361.865312) scale(0.22 -0.22)">
       <use xlink:href="#NimbusRoman-Regular-31"/>
       <use xlink:href="#NimbusRoman-Regular-2e" x="49.999985"/>
       <use xlink:href="#NimbusRoman-Regular-30" x="74.999969"/>
      </g>
     </g>
    </g>
    <g id="xtick_3">
     <g id="line2d_5">
      <path d="M 436.952713 339.84 
L 436.952713 7.2 
" clip-path="url(#pc20a4b08ad)" style="fill: none; stroke: #808080; stroke-opacity: 0.35; stroke-width: 0.4; stroke-linecap: square"/>
     </g>
     <g id="line2d_6">
      <g>
       <use xlink:href="#me8b9a5f8a3" x="436.952713" y="339.84" style="stroke: #000000; stroke-width: 0.8"/>
      </g>
     </g>
     <g id="text_3">
      <!-- 10.0 -->
      <g transform="translate(417.702713 361.865312) scale(0.22 -0.22)">
       <use xlink:href="#NimbusRoman-Regular-31"/>
       <use xlink:href="#NimbusRoman-Regular-30" x="49.999985"/>
       <use xlink:href="#NimbusRoman-Regular-2e" x="99.999969"/>
       <use xlink:href="#NimbusRoman-Regular-30" x="124.999954"/>
      </g>
     </g>
    </g>
    <g id="xtick_4">
     <g id="line2d_7">
      <path d="M 610.738289 339.84 
L 610.738289 7.2 
" clip-path="url(#pc20a4b08ad)" style="fill: none; stroke: #808080; stroke-opacity: 0.35; stroke-width: 0.4; stroke-linecap: square"/>
     </g>
     <g id="line2d_8">
      <g>
       <use xlink:href="#me8b9a5f8a3" x="610.738289" y="339.84" style="stroke: #000000; stroke-width: 0.8"/>
      </g>
     </g>
     <g id="text_4">
      <!-- 100.0 -->
      <g transform="translate(585.988289 361.865312) scale(0.22 -0.22)">
       <use xlink:href="#NimbusRoman-Regular-31"/>
       <use xlink:href="#NimbusRoman-Regular-30" x="49.999985"/>
       <use xlink:href="#NimbusRoman-Regular-30" x="99.999969"/>
       <use xlink:href="#NimbusRoman-Regular-2e" x="149.999954"/>
       <use xlink:href="#NimbusRoman-Regular-30" x="174.999939"/>
      </g>
     </g>
    </g>
    <g id="text_5">
     <!-- Percent Data of ImageNet (log scale) -->
     <g transform="translate(188.119531 385.665312) scale(0.22 -0.22)">
      <defs>
       <path id="NimbusRoman-Regular-50" d="M 102 4115 
C 576 4064 634 4006 640 3539 
L 640 768 
C 634 224 589 166 102 122 
L 102 0 
L 1894 0 
L 1894 122 
C 1389 134 1299 224 1293 698 
L 1293 1862 
C 1459 1850 1568 1843 1734 1843 
C 2240 1843 2579 1907 2854 2061 
C 3238 2266 3469 2656 3469 3078 
C 3469 3347 3379 3590 3206 3776 
C 2950 4058 2394 4237 1792 4237 
L 102 4237 
L 102 4115 
z
M 1293 3782 
C 1293 3955 1338 4000 1510 4000 
C 2374 4000 2771 3699 2771 3040 
C 2771 2419 2394 2099 1658 2099 
C 1530 2099 1440 2106 1293 2118 
L 1293 3782 
z
" transform="scale(0.015625)"/>
       <path id="NimbusRoman-Regular-65" d="M 2611 1050 
C 2304 563 2029 378 1619 378 
C 1254 378 979 563 794 928 
C 678 1171 634 1376 621 1773 
L 2592 1773 
C 2541 2189 2477 2374 2317 2579 
C 2125 2810 1830 2944 1498 2944 
C 1178 2944 877 2829 634 2611 
C 333 2349 160 1894 160 1370 
C 160 486 621 -64 1357 -64 
C 1965 -64 2445 314 2714 1005 
L 2611 1050 
z
M 634 1978 
C 704 2477 922 2714 1312 2714 
C 1702 2714 1856 2534 1939 1978 
L 634 1978 
z
" transform="scale(0.015625)"/>
       <path id="NimbusRoman-Regular-72" d="M 32 0 
L 1568 0 
L 1568 96 
C 1139 109 1037 198 1024 576 
L 1024 2016 
C 1024 2221 1293 2541 1472 2541 
C 1510 2541 1568 2509 1638 2445 
C 1734 2349 1811 2317 1894 2317 
C 2048 2317 2144 2426 2144 2605 
C 2144 2816 2010 2944 1792 2944 
C 1523 2944 1344 2803 1024 2342 
L 1024 2931 
L 992 2944 
C 634 2803 403 2714 45 2598 
L 45 2496 
C 134 2515 192 2522 269 2522 
C 429 2522 486 2419 486 2138 
L 486 538 
C 474 205 435 166 32 96 
L 32 0 
z
" transform="scale(0.015625)"/>
       <path id="NimbusRoman-Regular-63" d="M 2547 998 
C 2240 550 2010 397 1645 397 
C 1056 397 653 909 653 1645 
C 653 2310 1005 2758 1523 2758 
C 1754 2758 1837 2694 1901 2451 
L 1939 2310 
C 1990 2125 2106 2016 2246 2016 
C 2413 2016 2547 2138 2547 2285 
C 2547 2643 2099 2944 1562 2944 
C 1248 2944 922 2816 659 2586 
C 339 2304 160 1869 160 1357 
C 160 531 666 -64 1376 -64 
C 1664 -64 1920 38 2150 237 
C 2323 384 2445 563 2637 941 
L 2547 998 
z
" transform="scale(0.015625)"/>
       <path id="NimbusRoman-Regular-6e" d="M 115 0 
L 1472 0 
L 1472 96 
C 1152 115 1050 198 1050 429 
L 1050 2227 
C 1357 2515 1498 2592 1709 2592 
C 2022 2592 2176 2394 2176 1971 
L 2176 634 
C 2163 218 2086 115 1773 96 
L 1773 0 
L 3104 0 
L 3104 96 
C 2790 128 2720 205 2714 518 
L 2714 1984 
C 2714 2586 2432 2944 1958 2944 
C 1664 2944 1466 2835 1030 2426 
L 1030 2931 
L 986 2944 
C 653 2822 435 2752 102 2656 
L 102 2547 
C 147 2566 205 2573 275 2573 
C 454 2573 512 2477 512 2163 
L 512 576 
C 506 198 435 115 115 96 
L 115 0 
z
" transform="scale(0.015625)"/>
       <path id="NimbusRoman-Regular-74" d="M 1632 2880 
L 986 2880 
L 986 3622 
C 986 3686 973 3706 941 3706 
C 570 3168 378 2950 192 2842 
C 122 2797 83 2758 83 2720 
C 83 2701 90 2688 109 2675 
L 448 2675 
L 448 749 
C 448 211 640 -64 1018 -64 
C 1331 -64 1574 90 1786 422 
L 1702 493 
C 1562 326 1459 269 1318 269 
C 1082 269 986 442 986 845 
L 986 2675 
L 1632 2675 
L 1632 2880 
z
" transform="scale(0.015625)"/>
       <path id="NimbusRoman-Regular-20" transform="scale(0.015625)"/>
       <path id="NimbusRoman-Regular-44" d="M 102 0 
L 1920 0 
C 2662 0 3334 211 3731 570 
C 4147 947 4384 1517 4384 2138 
C 4384 2714 4198 3213 3840 3565 
C 3405 4006 2707 4237 1830 4237 
L 102 4237 
L 102 4115 
C 608 4070 659 4019 666 3539 
L 666 698 
C 659 230 582 154 102 122 
L 102 0 
z
M 1318 3750 
C 1318 3949 1382 4000 1651 4000 
C 2208 4000 2618 3898 2925 3680 
C 3424 3334 3686 2784 3686 2093 
C 3686 1338 3424 800 2906 499 
C 2579 314 2208 237 1651 237 
C 1395 237 1318 294 1318 499 
L 1318 3750 
z
" transform="scale(0.015625)"/>
       <path id="NimbusRoman-Regular-61" d="M 2829 422 
C 2720 333 2643 301 2547 301 
C 2400 301 2355 390 2355 672 
L 2355 1920 
C 2355 2253 2323 2438 2227 2592 
C 2086 2822 1811 2944 1434 2944 
C 832 2944 358 2630 358 2227 
C 358 2080 480 1952 634 1952 
C 787 1952 922 2080 922 2221 
C 922 2246 915 2278 909 2323 
C 896 2381 890 2432 890 2477 
C 890 2650 1094 2790 1350 2790 
C 1664 2790 1837 2605 1837 2259 
L 1837 1869 
C 858 1478 742 1421 467 1178 
C 326 1050 237 832 237 621 
C 237 218 518 -64 909 -64 
C 1190 -64 1453 70 1843 403 
C 1875 64 1990 -64 2253 -64 
C 2470 -64 2605 13 2829 256 
L 2829 422 
z
M 1837 787 
C 1837 595 1805 525 1670 448 
C 1510 358 1338 307 1203 307 
C 979 307 800 525 800 800 
L 800 826 
C 806 1210 1088 1453 1837 1715 
L 1837 787 
z
" transform="scale(0.015625)"/>
       <path id="NimbusRoman-Regular-6f" d="M 1600 2944 
C 762 2944 186 2330 186 1446 
C 186 576 781 -64 1587 -64 
C 2394 -64 3008 608 3008 1498 
C 3008 2342 2419 2944 1600 2944 
z
M 1517 2765 
C 2054 2765 2432 2150 2432 1274 
C 2432 544 2144 115 1664 115 
C 1414 115 1178 269 1043 525 
C 864 858 762 1306 762 1760 
C 762 2368 1056 2765 1517 2765 
z
" transform="scale(0.015625)"/>
       <path id="NimbusRoman-Regular-66" d="M 1978 2880 
L 1190 2880 
L 1190 3622 
C 1190 4000 1312 4192 1555 4192 
C 1696 4192 1779 4128 1894 3942 
C 1997 3776 2074 3712 2182 3712 
C 2336 3712 2451 3827 2451 3974 
C 2451 4205 2170 4371 1786 4371 
C 1382 4371 1050 4198 883 3910 
C 717 3622 666 3392 659 2880 
L 134 2880 
L 134 2675 
L 659 2675 
L 659 666 
C 646 186 582 115 128 96 
L 128 0 
L 1792 0 
L 1792 96 
C 1267 115 1197 186 1197 666 
L 1197 2675 
L 1978 2675 
L 1978 2880 
z
" transform="scale(0.015625)"/>
       <path id="NimbusRoman-Regular-49" d="M 115 0 
L 2016 0 
L 2016 122 
C 1491 134 1402 224 1389 698 
L 1389 3539 
C 1402 4019 1485 4096 2016 4115 
L 2016 4237 
L 115 4237 
L 115 4115 
C 659 4083 730 4019 736 3539 
L 736 698 
C 730 211 653 141 115 122 
L 115 0 
z
" transform="scale(0.015625)"/>
       <path id="NimbusRoman-Regular-6d" d="M 102 0 
L 1523 0 
L 1523 96 
C 1197 102 1094 173 1088 429 
L 1088 2234 
C 1088 2246 1139 2310 1184 2355 
C 1344 2502 1619 2611 1843 2611 
C 2125 2611 2266 2387 2266 1939 
L 2266 550 
C 2253 186 2189 115 1830 96 
L 1830 0 
L 3264 0 
L 3264 96 
C 2906 96 2816 198 2803 608 
L 2803 2221 
C 2995 2496 3200 2611 3501 2611 
C 3866 2611 3981 2438 3981 1907 
L 3981 557 
C 3968 179 3930 134 3558 96 
L 3558 0 
L 4960 0 
L 4960 96 
L 4794 109 
C 4589 141 4518 237 4518 486 
L 4518 1805 
C 4518 2560 4269 2944 3776 2944 
C 3405 2944 3078 2778 2733 2406 
C 2618 2771 2400 2944 2054 2944 
C 1766 2944 1594 2861 1062 2451 
L 1062 2931 
L 1018 2944 
C 678 2822 461 2752 122 2656 
L 122 2547 
C 198 2566 256 2573 326 2573 
C 493 2573 550 2470 550 2163 
L 550 544 
C 538 186 454 96 102 96 
L 102 0 
z
" transform="scale(0.015625)"/>
       <path id="NimbusRoman-Regular-67" d="M 3008 2483 
L 3008 2733 
L 2515 2733 
C 2381 2733 2291 2752 2163 2797 
L 2022 2848 
C 1856 2912 1677 2944 1510 2944 
C 915 2944 442 2490 442 1901 
C 442 1498 608 1254 1037 1043 
L 870 890 
C 736 762 659 691 640 666 
C 506 525 467 454 467 346 
C 467 205 538 134 806 6 
C 346 -326 179 -538 179 -774 
C 179 -1114 672 -1395 1286 -1395 
C 1766 -1395 2266 -1229 2598 -960 
C 2842 -762 2950 -557 2950 -314 
C 2950 83 2650 346 2176 371 
L 1350 410 
C 1005 422 851 480 851 582 
C 851 710 1062 934 1235 986 
C 1466 966 1587 954 1600 954 
C 1837 954 2093 1050 2291 1222 
C 2502 1402 2598 1626 2598 1946 
C 2598 2131 2566 2278 2477 2483 
L 3008 2483 
z
M 941 -13 
C 1158 -58 1658 -96 1984 -96 
C 2560 -96 2771 -179 2771 -410 
C 2771 -781 2285 -1030 1562 -1030 
C 992 -1030 627 -845 627 -563 
C 627 -416 685 -320 941 -13 
z
M 973 2163 
C 973 2541 1152 2765 1446 2765 
C 1645 2765 1811 2656 1914 2464 
C 2035 2240 2106 1952 2106 1696 
C 2106 1338 1926 1114 1632 1114 
C 1235 1114 973 1530 973 2144 
L 973 2163 
z
" transform="scale(0.015625)"/>
       <path id="NimbusRoman-Regular-4e" d="M 4525 4237 
L 3021 4237 
L 3021 4115 
C 3533 4083 3616 3974 3635 3296 
L 3635 1139 
L 1171 4237 
L 77 4237 
L 77 4115 
C 352 4115 442 4064 698 3763 
L 698 941 
C 685 262 602 154 77 122 
L 77 0 
L 1581 0 
L 1581 122 
C 1088 147 992 282 979 941 
L 979 3450 
L 3808 -70 
L 3917 -70 
L 3917 3296 
C 3936 3962 4019 4070 4525 4115 
L 4525 4237 
z
" transform="scale(0.015625)"/>
       <path id="NimbusRoman-Regular-28" d="M 1888 4326 
C 1414 4013 1222 3853 986 3558 
C 531 3002 307 2362 307 1613 
C 307 794 544 173 1107 -480 
C 1370 -787 1536 -928 1869 -1133 
L 1946 -1030 
C 1434 -627 1254 -397 1082 77 
C 928 506 858 986 858 1632 
C 858 2304 941 2835 1114 3226 
C 1293 3622 1485 3853 1946 4224 
L 1888 4326 
z
" transform="scale(0.015625)"/>
       <path id="NimbusRoman-Regular-6c" d="M 134 0 
L 1645 0 
L 1645 96 
C 1242 115 1171 179 1165 538 
L 1165 4358 
L 1139 4371 
C 813 4269 576 4198 122 4090 
L 122 3987 
L 160 3987 
C 230 3994 307 4000 358 4000 
C 563 4000 627 3910 627 3610 
L 627 557 
C 621 211 531 122 134 96 
L 134 0 
z
" transform="scale(0.015625)"/>
       <path id="NimbusRoman-Regular-73" d="M 2016 2010 
L 1990 2886 
L 1920 2886 
C 1888 2835 1856 2816 1818 2816 
C 1779 2816 1715 2829 1645 2861 
C 1498 2912 1350 2944 1197 2944 
C 691 2944 326 2611 326 2150 
C 326 1792 531 1536 1075 1229 
L 1446 1018 
C 1670 890 1779 736 1779 538 
C 1779 256 1574 77 1248 77 
C 806 77 582 320 435 973 
L 333 973 
L 333 -26 
L 416 -26 
C 461 38 486 51 563 51 
C 634 51 710 38 858 0 
C 1030 -38 1197 -64 1325 -64 
C 1824 -64 2227 307 2227 755 
C 2227 1075 2074 1286 1690 1517 
L 998 1926 
C 819 2035 723 2189 723 2362 
C 723 2624 922 2797 1216 2797 
C 1581 2797 1773 2586 1920 2010 
L 2016 2010 
z
" transform="scale(0.015625)"/>
       <path id="NimbusRoman-Regular-29" d="M 243 -1133 
C 717 -819 909 -659 1146 -365 
C 1600 192 1824 832 1824 1581 
C 1824 2400 1587 3021 1024 3674 
C 762 3981 595 4122 262 4326 
L 186 4224 
C 698 3821 870 3597 1050 3117 
C 1203 2688 1274 2208 1274 1562 
C 1274 890 1190 365 1018 -26 
C 845 -422 646 -659 186 -1030 
L 243 -1133 
z
" transform="scale(0.015625)"/>
      </defs>
      <use xlink:href="#NimbusRoman-Regular-50"/>
      <use xlink:href="#NimbusRoman-Regular-65" x="55.599991"/>
      <use xlink:href="#NimbusRoman-Regular-72" x="99.999985"/>
      <use xlink:href="#NimbusRoman-Regular-63" x="133.299973"/>
      <use xlink:href="#NimbusRoman-Regular-65" x="177.699966"/>
      <use xlink:href="#NimbusRoman-Regular-6e" x="222.09996"/>
      <use xlink:href="#NimbusRoman-Regular-74" x="272.099945"/>
      <use xlink:href="#NimbusRoman-Regular-20" x="299.899933"/>
      <use xlink:href="#NimbusRoman-Regular-44" x="324.899918"/>
      <use xlink:href="#NimbusRoman-Regular-61" x="397.099899"/>
      <use xlink:href="#NimbusRoman-Regular-74" x="441.499893"/>
      <use xlink:href="#NimbusRoman-Regular-61" x="469.299881"/>
      <use xlink:href="#NimbusRoman-Regular-20" x="513.699875"/>
      <use xlink:href="#NimbusRoman-Regular-6f" x="538.69986"/>
      <use xlink:href="#NimbusRoman-Regular-66" x="588.699844"/>
      <use xlink:href="#NimbusRoman-Regular-20" x="621.999832"/>
      <use xlink:href="#NimbusRoman-Regular-49" x="646.999817"/>
      <use xlink:href="#NimbusRoman-Regular-6d" x="680.299805"/>
      <use xlink:href="#NimbusRoman-Regular-61" x="758.099792"/>
      <use xlink:href="#NimbusRoman-Regular-67" x="802.499786"/>
      <use xlink:href="#NimbusRoman-Regular-65" x="852.499771"/>
      <use xlink:href="#NimbusRoman-Regular-4e" x="896.899765"/>
      <use xlink:href="#NimbusRoman-Regular-65" x="969.099747"/>
      <use xlink:href="#NimbusRoman-Regular-74" x="1013.499741"/>
      <use xlink:href="#NimbusRoman-Regular-20" x="1041.299728"/>
      <use xlink:href="#NimbusRoman-Regular-28" x="1066.299713"/>
      <use xlink:href="#NimbusRoman-Regular-6c" x="1099.599701"/>
      <use xlink:href="#NimbusRoman-Regular-6f" x="1127.399689"/>
      <use xlink:href="#NimbusRoman-Regular-67" x="1177.399673"/>
      <use xlink:href="#NimbusRoman-Regular-20" x="1227.399658"/>
      <use xlink:href="#NimbusRoman-Regular-73" x="1252.399643"/>
      <use xlink:href="#NimbusRoman-Regular-63" x="1291.299637"/>
      <use xlink:href="#NimbusRoman-Regular-61" x="1335.699631"/>
      <use xlink:href="#NimbusRoman-Regular-6c" x="1380.099625"/>
      <use xlink:href="#NimbusRoman-Regular-65" x="1407.899612"/>
      <use xlink:href="#NimbusRoman-Regular-29" x="1452.299606"/>
     </g>
    </g>
   </g>
   <g id="matplotlib.axis_2">
    <g id="ytick_1">
     <g id="line2d_9">
      <path d="M 72.54 267.074623 
L 630.54 267.074623 
" clip-path="url(#pc20a4b08ad)" style="fill: none; stroke: #808080; stroke-opacity: 0.35; stroke-width: 0.4; stroke-linecap: square"/>
     </g>
     <g id="line2d_10">
      <defs>
       <path id="m6725852077" d="M 0 0 
L -3.5 0 
" style="stroke: #000000; stroke-width: 0.8"/>
      </defs>
      <g>
       <use xlink:href="#m6725852077" x="72.54" y="267.074623" style="stroke: #000000; stroke-width: 0.8"/>
      </g>
     </g>
     <g id="text_6">
      <!-- −15 -->
      <g transform="translate(31.130625 274.587279) scale(0.22 -0.22)">
       <defs>
        <path id="NimbusRoman-Regular-2212" d="M 3418 1408 
L 3418 1830 
L 192 1830 
L 192 1408 
L 3418 1408 
z
" transform="scale(0.015625)"/>
        <path id="NimbusRoman-Regular-35" d="M 1158 3731 
L 2413 3731 
C 2522 3731 2541 3738 2560 3789 
L 2803 4358 
L 2746 4403 
C 2650 4275 2592 4237 2451 4237 
L 1114 4237 
L 416 2720 
C 410 2707 410 2701 410 2688 
C 410 2650 435 2637 486 2637 
C 691 2637 941 2592 1210 2509 
C 1946 2272 2278 1882 2278 1242 
C 2278 627 1894 147 1389 147 
C 1261 147 1158 192 966 333 
C 762 486 621 544 474 544 
C 294 544 205 467 205 307 
C 205 64 499 -90 986 -90 
C 1517 -90 1978 83 2304 410 
C 2592 698 2726 1062 2726 1549 
C 2726 2010 2605 2304 2291 2624 
C 2010 2906 1645 3053 890 3187 
L 1158 3731 
z
" transform="scale(0.015625)"/>
       </defs>
       <use xlink:href="#NimbusRoman-Regular-2212"/>
       <use xlink:href="#NimbusRoman-Regular-31" x="56.399994"/>
       <use xlink:href="#NimbusRoman-Regular-35" x="106.399979"/>
      </g>
     </g>
    </g>
    <g id="ytick_2">
     <g id="line2d_11">
      <path d="M 72.54 193.772477 
L 630.54 193.772477 
" clip-path="url(#pc20a4b08ad)" style="fill: none; stroke: #808080; stroke-opacity: 0.35; stroke-width: 0.4; stroke-linecap: square"/>
     </g>
     <g id="line2d_12">
      <g>
       <use xlink:href="#m6725852077" x="72.54" y="193.772477" style="stroke: #000000; stroke-width: 0.8"/>
      </g>
     </g>
     <g id="text_7">
      <!-- −10 -->
      <g transform="translate(31.130625 201.285133) scale(0.22 -0.22)">
       <use xlink:href="#NimbusRoman-Regular-2212"/>
       <use xlink:href="#NimbusRoman-Regular-31" x="56.399994"/>
       <use xlink:href="#NimbusRoman-Regular-30" x="106.399979"/>
      </g>
     </g>
    </g>
    <g id="ytick_3">
     <g id="line2d_13">
      <path d="M 72.54 120.470331 
L 630.54 120.470331 
" clip-path="url(#pc20a4b08ad)" style="fill: none; stroke: #808080; stroke-opacity: 0.35; stroke-width: 0.4; stroke-linecap: square"/>
     </g>
     <g id="line2d_14">
      <g>
       <use xlink:href="#m6725852077" x="72.54" y="120.470331" style="stroke: #000000; stroke-width: 0.8"/>
      </g>
     </g>
     <g id="text_8">
      <!-- −5 -->
      <g transform="translate(42.130625 127.982987) scale(0.22 -0.22)">
       <use xlink:href="#NimbusRoman-Regular-2212"/>
       <use xlink:href="#NimbusRoman-Regular-35" x="56.399994"/>
      </g>
     </g>
    </g>
    <g id="ytick_4">
     <g id="line2d_15">
      <path d="M 72.54 47.168185 
L 630.54 47.168185 
" clip-path="url(#pc20a4b08ad)" style="fill: none; stroke: #808080; stroke-opacity: 0.35; stroke-width: 0.4; stroke-linecap: square"/>
     </g>
     <g id="line2d_16">
      <g>
       <use xlink:href="#m6725852077" x="72.54" y="47.168185" style="stroke: #000000; stroke-width: 0.8"/>
      </g>
     </g>
     <g id="text_9">
      <!-- 0 -->
      <g transform="translate(54.54 54.680841) scale(0.22 -0.22)">
       <use xlink:href="#NimbusRoman-Regular-30"/>
      </g>
     </g>
    </g>
    <g id="text_10">
     <!-- KNN % Difference vs 50% Masking -->
     <g transform="translate(22.335313 335.730469) rotate(-90) scale(0.22 -0.22)">
      <defs>
       <path id="NimbusRoman-Regular-4b" d="M 2643 4115 
C 3027 4096 3078 4070 3078 3917 
C 3078 3776 2931 3584 2579 3258 
L 1446 2227 
L 1446 3539 
C 1453 4019 1517 4077 2035 4115 
L 2035 4237 
L 218 4237 
L 218 4115 
C 710 4083 781 4006 794 3539 
L 794 768 
C 787 224 717 154 218 122 
L 218 0 
L 2022 0 
L 2022 122 
C 1530 154 1453 224 1446 698 
L 1446 1894 
L 1613 2029 
L 2291 1357 
C 2784 864 3123 422 3123 269 
C 3123 173 3040 134 2854 128 
C 2822 128 2752 128 2675 122 
L 2675 0 
L 4627 0 
L 4627 122 
C 4294 128 4205 192 3622 813 
L 2131 2413 
L 3347 3616 
C 3782 4032 3885 4083 4320 4115 
L 4320 4237 
L 2643 4237 
L 2643 4115 
z
" transform="scale(0.015625)"/>
       <path id="NimbusRoman-Regular-25" d="M 4282 2374 
C 3558 2374 2874 1626 2874 826 
C 2874 326 3174 0 3642 0 
C 3930 0 4166 102 4390 326 
C 4730 672 4941 1190 4941 1690 
C 4941 2125 4698 2374 4282 2374 
z
M 4326 2170 
C 4576 2170 4774 1939 4774 1658 
C 4774 1293 4614 858 4371 550 
C 4166 301 3981 192 3750 192 
C 3514 192 3360 358 3360 602 
C 3360 947 3539 1466 3776 1798 
C 3949 2054 4128 2170 4326 2170 
z
M 4058 4326 
L 3808 4326 
C 3456 4000 3206 3891 2803 3891 
C 2547 3891 2406 3936 2253 4064 
C 2086 4205 2003 4237 1805 4237 
C 1069 4237 390 3475 390 2662 
C 390 2214 730 1850 1146 1850 
C 1421 1850 1709 1978 1920 2202 
C 2253 2541 2458 3053 2458 3514 
C 2458 3603 2445 3680 2413 3795 
C 2528 3750 2650 3731 2835 3731 
C 3110 3731 3270 3776 3533 3930 
L 1286 -83 
L 1594 -83 
L 4058 4326 
z
M 2240 3840 
C 2278 3712 2298 3616 2298 3526 
C 2298 3264 2202 2925 2054 2656 
C 1843 2285 1549 2067 1254 2067 
C 1030 2067 877 2227 877 2458 
C 877 3136 1408 4045 1805 4045 
C 1837 4045 1850 4038 1888 4006 
C 1978 3923 2054 3891 2240 3840 
z
" transform="scale(0.015625)"/>
       <path id="NimbusRoman-Regular-69" d="M 102 0 
L 1619 0 
L 1619 96 
C 1197 128 1152 186 1146 653 
L 1146 2925 
L 1120 2944 
L 128 2592 
L 128 2496 
L 179 2502 
C 256 2515 333 2522 397 2522 
C 550 2522 608 2419 608 2138 
L 608 653 
C 595 179 538 115 102 96 
L 102 0 
z
M 819 4371 
C 646 4371 499 4224 499 4045 
C 499 3859 640 3718 819 3718 
C 1011 3718 1152 3859 1152 4045 
C 1152 4230 1005 4371 819 4371 
z
" transform="scale(0.015625)"/>
       <path id="NimbusRoman-Regular-76" d="M 3053 2880 
L 2163 2880 
L 2163 2784 
C 2368 2765 2464 2701 2464 2579 
C 2464 2515 2451 2451 2426 2387 
L 1792 730 
L 1139 2368 
C 1101 2458 1082 2547 1082 2605 
C 1082 2720 1152 2765 1376 2784 
L 1376 2880 
L 122 2880 
L 122 2784 
C 365 2771 410 2707 704 2048 
L 1472 211 
C 1485 173 1504 128 1523 77 
C 1542 26 1562 -19 1581 -51 
C 1594 -77 1619 -90 1638 -90 
C 1677 -90 1722 -6 1818 230 
L 2637 2285 
C 2822 2720 2861 2765 3053 2784 
L 3053 2880 
z
" transform="scale(0.015625)"/>
       <path id="NimbusRoman-Regular-4d" d="M 5523 4237 
L 4250 4237 
L 2835 1005 
L 1357 4237 
L 90 4237 
L 90 4115 
C 614 4090 685 4019 698 3539 
L 698 941 
C 685 262 602 154 77 122 
L 77 0 
L 1581 0 
L 1581 122 
C 1088 147 992 282 979 941 
L 979 3520 
L 2586 0 
L 2675 0 
L 4314 3667 
L 4314 768 
C 4307 224 4237 154 3731 122 
L 3731 0 
L 5523 0 
L 5523 122 
C 5062 147 4979 237 4966 698 
L 4966 3539 
C 4979 4000 5056 4083 5523 4115 
L 5523 4237 
z
" transform="scale(0.015625)"/>
       <path id="NimbusRoman-Regular-6b" d="M 45 0 
L 1542 0 
L 1542 96 
L 1414 102 
C 1146 122 1069 192 1062 429 
L 1062 1606 
L 1958 410 
C 1984 378 2003 346 2022 326 
C 2074 262 2093 224 2093 192 
C 2093 134 2035 96 1958 96 
L 1837 96 
L 1837 0 
L 3232 0 
L 3232 96 
C 2950 115 2752 237 2483 563 
L 1504 1805 
L 1690 1978 
C 2490 2694 2662 2797 3072 2784 
L 3072 2880 
L 1766 2880 
L 1766 2790 
C 2016 2784 2086 2758 2086 2675 
C 2086 2618 2029 2534 1939 2451 
L 1062 1670 
L 1062 4358 
L 1037 4371 
C 787 4294 602 4237 237 4141 
L 45 4090 
L 45 3987 
C 128 3994 186 4000 250 4000 
C 467 4000 525 3917 525 3610 
L 525 525 
C 518 186 499 166 45 96 
L 45 0 
z
" transform="scale(0.015625)"/>
      </defs>
      <use xlink:href="#NimbusRoman-Regular-4b"/>
      <use xlink:href="#NimbusRoman-Regular-4e" x="72.199982"/>
      <use xlink:href="#NimbusRoman-Regular-4e" x="144.399963"/>
      <use xlink:href="#NimbusRoman-Regular-20" x="216.599945"/>
      <use xlink:href="#NimbusRoman-Regular-25" x="241.59993"/>
      <use xlink:href="#NimbusRoman-Regular-20" x="324.899918"/>
      <use xlink:href="#NimbusRoman-Regular-44" x="349.899902"/>
      <use xlink:href="#NimbusRoman-Regular-69" x="422.099884"/>
      <use xlink:href="#NimbusRoman-Regular-66" x="449.899872"/>
      <use xlink:href="#NimbusRoman-Regular-66" x="483.19986"/>
      <use xlink:href="#NimbusRoman-Regular-65" x="516.499847"/>
      <use xlink:href="#NimbusRoman-Regular-72" x="560.899841"/>
      <use xlink:href="#NimbusRoman-Regular-65" x="594.199829"/>
      <use xlink:href="#NimbusRoman-Regular-6e" x="638.599823"/>
      <use xlink:href="#NimbusRoman-Regular-63" x="688.599808"/>
      <use xlink:href="#NimbusRoman-Regular-65" x="732.999802"/>
      <use xlink:href="#NimbusRoman-Regular-20" x="777.399796"/>
      <use xlink:href="#NimbusRoman-Regular-76" x="802.39978"/>
      <use xlink:href="#NimbusRoman-Regular-73" x="852.399765"/>
      <use xlink:href="#NimbusRoman-Regular-20" x="891.299759"/>
      <use xlink:href="#NimbusRoman-Regular-35" x="916.299744"/>
      <use xlink:href="#NimbusRoman-Regular-30" x="966.299728"/>
      <use xlink:href="#NimbusRoman-Regular-25" x="1016.299713"/>
      <use xlink:href="#NimbusRoman-Regular-20" x="1099.599701"/>
      <use xlink:href="#NimbusRoman-Regular-4d" x="1124.599686"/>
      <use xlink:href="#NimbusRoman-Regular-61" x="1213.49968"/>
      <use xlink:href="#NimbusRoman-Regular-73" x="1257.899673"/>
      <use xlink:href="#NimbusRoman-Regular-6b" x="1296.799667"/>
      <use xlink:href="#NimbusRoman-Regular-69" x="1346.799652"/>
      <use xlink:href="#NimbusRoman-Regular-6e" x="1374.59964"/>
      <use xlink:href="#NimbusRoman-Regular-67" x="1424.599625"/>
     </g>
    </g>
   </g>
   <g id="line2d_17">
    <path d="M 89.381562 47.168185 
L 263.167138 47.168185 
L 436.952713 47.168185 
L 610.738289 47.168185 
" clip-path="url(#pc20a4b08ad)" style="fill: none; stroke: #f5a93d; stroke-width: 2; stroke-linecap: square"/>
    <defs>
     <path id="me5fd9f40cc" d="M 0 6 
C 1.591219 6 3.117479 5.367802 4.242641 4.242641 
C 5.367802 3.117479 6 1.591219 6 0 
C 6 -1.591219 5.367802 -3.117479 4.242641 -4.242641 
C 3.117479 -5.367802 1.591219 -6 0 -6 
C -1.591219 -6 -3.117479 -5.367802 -4.242641 -4.242641 
C -5.367802 -3.117479 -6 -1.591219 -6 0 
C -6 1.591219 -5.367802 3.117479 -4.242641 4.242641 
C -3.117479 5.367802 -1.591219 6 0 6 
z
" style="stroke: #f5a93d"/>
    </defs>
    <g clip-path="url(#pc20a4b08ad)">
     <use xlink:href="#me5fd9f40cc" x="89.381562" y="47.168185" style="fill: #f5a93d; stroke: #f5a93d"/>
     <use xlink:href="#me5fd9f40cc" x="263.167138" y="47.168185" style="fill: #f5a93d; stroke: #f5a93d"/>
     <use xlink:href="#me5fd9f40cc" x="436.952713" y="47.168185" style="fill: #f5a93d; stroke: #f5a93d"/>
     <use xlink:href="#me5fd9f40cc" x="610.738289" y="47.168185" style="fill: #f5a93d; stroke: #f5a93d"/>
    </g>
   </g>
   <g id="line2d_18">
    <path d="M 89.381562 225.086015 
L 263.167138 75.039723 
L 436.952713 42.88151 
L 610.738289 22.32 
" clip-path="url(#pc20a4b08ad)" style="fill: none; stroke: #5d8dfe; stroke-width: 2; stroke-linecap: square"/>
    <defs>
     <path id="mce603702c7" d="M 0 6 
C 1.591219 6 3.117479 5.367802 4.242641 4.242641 
C 5.367802 3.117479 6 1.591219 6 0 
C 6 -1.591219 5.367802 -3.117479 4.242641 -4.242641 
C 3.117479 -5.367802 1.591219 -6 0 -6 
C -1.591219 -6 -3.117479 -5.367802 -4.242641 -4.242641 
C -5.367802 -3.117479 -6 -1.591219 -6 0 
C -6 1.591219 -5.367802 3.117479 -4.242641 4.242641 
C -3.117479 5.367802 -1.591219 6 0 6 
z
" style="stroke: #5d8dfe"/>
    </defs>
    <g clip-path="url(#pc20a4b08ad)">
     <use xlink:href="#mce603702c7" x="89.381562" y="225.086015" style="fill: #5d8dfe; stroke: #5d8dfe"/>
     <use xlink:href="#mce603702c7" x="263.167138" y="75.039723" style="fill: #5d8dfe; stroke: #5d8dfe"/>
     <use xlink:href="#mce603702c7" x="436.952713" y="42.88151" style="fill: #5d8dfe; stroke: #5d8dfe"/>
     <use xlink:href="#mce603702c7" x="610.738289" y="22.32" style="fill: #5d8dfe; stroke: #5d8dfe"/>
    </g>
   </g>
   <g id="line2d_19">
    <path d="M 89.381562 324.72 
L 263.167138 214.397415 
L 436.952713 124.328339 
L 610.738289 89.4101 
" clip-path="url(#pc20a4b08ad)" style="fill: none; stroke: #f5433e; stroke-width: 2; stroke-linecap: square"/>
    <defs>
     <path id="m1b968d7673" d="M 0 6 
C 1.591219 6 3.117479 5.367802 4.242641 4.242641 
C 5.367802 3.117479 6 1.591219 6 0 
C 6 -1.591219 5.367802 -3.117479 4.242641 -4.242641 
C 3.117479 -5.367802 1.591219 -6 0 -6 
C -1.591219 -6 -3.117479 -5.367802 -4.242641 -4.242641 
C -5.367802 -3.117479 -6 -1.591219 -6 0 
C -6 1.591219 -5.367802 3.117479 -4.242641 4.242641 
C -3.117479 5.367802 -1.591219 6 0 6 
z
" style="stroke: #f5433e"/>
    </defs>
    <g clip-path="url(#pc20a4b08ad)">
     <use xlink:href="#m1b968d7673" x="89.381562" y="324.72" style="fill: #f5433e; stroke: #f5433e"/>
     <use xlink:href="#m1b968d7673" x="263.167138" y="214.397415" style="fill: #f5433e; stroke: #f5433e"/>
     <use xlink:href="#m1b968d7673" x="436.952713" y="124.328339" style="fill: #f5433e; stroke: #f5433e"/>
     <use xlink:href="#m1b968d7673" x="610.738289" y="89.4101" style="fill: #f5433e; stroke: #f5433e"/>
    </g>
   </g>
   <g id="patch_3">
    <path d="M 72.54 339.84 
L 72.54 7.2 
" style="fill: none; stroke: #000000; stroke-width: 1.3; stroke-linejoin: miter; stroke-linecap: square"/>
   </g>
   <g id="patch_4">
    <path d="M 630.54 339.84 
L 630.54 7.2 
" style="fill: none; stroke: #000000; stroke-width: 1.3; stroke-linejoin: miter; stroke-linecap: square"/>
   </g>
   <g id="patch_5">
    <path d="M 72.54 339.84 
L 630.54 339.84 
" style="fill: none; stroke: #000000; stroke-width: 1.3; stroke-linejoin: miter; stroke-linecap: square"/>
   </g>
   <g id="patch_6">
    <path d="M 72.54 7.2 
L 630.54 7.2 
" style="fill: none; stroke: #000000; stroke-width: 1.3; stroke-linejoin: miter; stroke-linecap: square"/>
   </g>
   <g id="legend_1">
    <g id="patch_7">
     <path d="M 312.588437 328.84 
L 615.14 328.84 
Q 619.54 328.84 619.54 324.44 
L 619.54 233.054062 
Q 619.54 228.654062 615.14 228.654062 
L 312.588437 228.654062 
Q 308.188438 228.654062 308.188438 233.054062 
L 308.188438 324.44 
Q 308.188438 328.84 312.588437 328.84 
z
" style="fill: #ffffff; opacity: 0.8; stroke: #cccccc; stroke-linejoin: miter"/>
    </g>
    <g id="line2d_20">
     <path d="M 316.988438 245.154063 
L 338.988438 245.154063 
L 360.988438 245.154063 
" style="fill: none; stroke: #f5a93d; stroke-width: 2; stroke-linecap: square"/>
     <g>
      <use xlink:href="#me5fd9f40cc" x="338.988438" y="245.154063" style="fill: #f5a93d; stroke: #f5a93d"/>
     </g>
    </g>
    <g id="text_11">
     <!-- 50% Masking (Reference) -->
     <g transform="translate(378.588438 252.854062) scale(0.22 -0.22)">
      <defs>
       <path id="NimbusRoman-Regular-52" d="M 4218 122 
C 3974 141 3846 205 3661 422 
L 2342 2042 
C 3155 2202 3501 2522 3501 3110 
C 3501 3386 3418 3622 3251 3808 
C 3008 4070 2470 4237 1875 4237 
L 109 4237 
L 109 4115 
C 582 4064 646 4006 653 3539 
L 653 768 
C 646 224 589 160 109 122 
L 109 0 
L 1882 0 
L 1882 122 
C 1389 154 1312 230 1306 698 
L 1306 1958 
L 1664 1971 
L 3187 0 
L 4218 0 
L 4218 122 
z
M 1306 3770 
C 1306 3949 1376 4000 1632 4000 
C 2432 4000 2803 3725 2803 3123 
C 2803 2803 2669 2534 2438 2413 
C 2144 2246 1920 2208 1306 2195 
L 1306 3770 
z
" transform="scale(0.015625)"/>
      </defs>
      <use xlink:href="#NimbusRoman-Regular-35"/>
      <use xlink:href="#NimbusRoman-Regular-30" x="49.999985"/>
      <use xlink:href="#NimbusRoman-Regular-25" x="99.999969"/>
      <use xlink:href="#NimbusRoman-Regular-20" x="183.299957"/>
      <use xlink:href="#NimbusRoman-Regular-4d" x="208.299942"/>
      <use xlink:href="#NimbusRoman-Regular-61" x="297.199936"/>
      <use xlink:href="#NimbusRoman-Regular-73" x="341.59993"/>
      <use xlink:href="#NimbusRoman-Regular-6b" x="380.499924"/>
      <use xlink:href="#NimbusRoman-Regular-69" x="430.499908"/>
      <use xlink:href="#NimbusRoman-Regular-6e" x="458.299896"/>
      <use xlink:href="#NimbusRoman-Regular-67" x="508.299881"/>
      <use xlink:href="#NimbusRoman-Regular-20" x="558.299866"/>
      <use xlink:href="#NimbusRoman-Regular-28" x="583.29985"/>
      <use xlink:href="#NimbusRoman-Regular-52" x="616.599838"/>
      <use xlink:href="#NimbusRoman-Regular-65" x="683.299835"/>
      <use xlink:href="#NimbusRoman-Regular-66" x="727.699829"/>
      <use xlink:href="#NimbusRoman-Regular-65" x="760.999817"/>
      <use xlink:href="#NimbusRoman-Regular-72" x="805.399811"/>
      <use xlink:href="#NimbusRoman-Regular-65" x="838.699799"/>
      <use xlink:href="#NimbusRoman-Regular-6e" x="883.099792"/>
      <use xlink:href="#NimbusRoman-Regular-63" x="933.099777"/>
      <use xlink:href="#NimbusRoman-Regular-65" x="977.499771"/>
      <use xlink:href="#NimbusRoman-Regular-29" x="1021.899765"/>
     </g>
    </g>
    <g id="line2d_21">
     <path d="M 316.988438 276.349375 
L 338.988438 276.349375 
L 360.988438 276.349375 
" style="fill: none; stroke: #5d8dfe; stroke-width: 2; stroke-linecap: square"/>
     <g>
      <use xlink:href="#mce603702c7" x="338.988438" y="276.349375" style="fill: #5d8dfe; stroke: #5d8dfe"/>
     </g>
    </g>
    <g id="text_12">
     <!-- 30% Masking -->
     <g transform="translate(378.588438 284.049375) scale(0.22 -0.22)">
      <defs>
       <path id="NimbusRoman-Regular-33" d="M 979 2112 
C 1357 2112 1504 2099 1651 2042 
C 2054 1894 2298 1536 2298 1094 
C 2298 550 1939 141 1466 141 
C 1286 141 1158 186 922 339 
C 736 454 627 499 518 499 
C 371 499 275 410 275 275 
C 275 51 550 -90 998 -90 
C 1485 -90 1990 77 2298 339 
C 2598 602 2758 973 2758 1402 
C 2758 1734 2656 2029 2477 2227 
C 2342 2368 2221 2445 1946 2566 
C 2381 2867 2541 3104 2541 3450 
C 2541 3974 2138 4326 1542 4326 
C 1222 4326 941 4218 710 4013 
C 518 3834 422 3674 288 3290 
L 384 3264 
C 640 3738 928 3942 1331 3942 
C 1754 3942 2035 3667 2035 3258 
C 2035 3027 1939 2803 1779 2637 
C 1587 2445 1408 2349 973 2195 
L 979 2112 
z
" transform="scale(0.015625)"/>
      </defs>
      <use xlink:href="#NimbusRoman-Regular-33"/>
      <use xlink:href="#NimbusRoman-Regular-30" x="49.999985"/>
      <use xlink:href="#NimbusRoman-Regular-25" x="99.999969"/>
      <use xlink:href="#NimbusRoman-Regular-20" x="183.299957"/>
      <use xlink:href="#NimbusRoman-Regular-4d" x="208.299942"/>
      <use xlink:href="#NimbusRoman-Regular-61" x="297.199936"/>
      <use xlink:href="#NimbusRoman-Regular-73" x="341.59993"/>
      <use xlink:href="#NimbusRoman-Regular-6b" x="380.499924"/>
      <use xlink:href="#NimbusRoman-Regular-69" x="430.499908"/>
      <use xlink:href="#NimbusRoman-Regular-6e" x="458.299896"/>
      <use xlink:href="#NimbusRoman-Regular-67" x="508.299881"/>
     </g>
    </g>
    <g id="line2d_22">
     <path d="M 316.988438 307.544688 
L 338.988438 307.544688 
L 360.988438 307.544688 
" style="fill: none; stroke: #f5433e; stroke-width: 2; stroke-linecap: square"/>
     <g>
      <use xlink:href="#m1b968d7673" x="338.988438" y="307.544688" style="fill: #f5433e; stroke: #f5433e"/>
     </g>
    </g>
    <g id="text_13">
     <!-- 10% Masking -->
     <g transform="translate(378.588438 315.244687) scale(0.22 -0.22)">
      <use xlink:href="#NimbusRoman-Regular-31"/>
      <use xlink:href="#NimbusRoman-Regular-30" x="49.999985"/>
      <use xlink:href="#NimbusRoman-Regular-25" x="99.999969"/>
      <use xlink:href="#NimbusRoman-Regular-20" x="183.299957"/>
      <use xlink:href="#NimbusRoman-Regular-4d" x="208.299942"/>
      <use xlink:href="#NimbusRoman-Regular-61" x="297.199936"/>
      <use xlink:href="#NimbusRoman-Regular-73" x="341.59993"/>
      <use xlink:href="#NimbusRoman-Regular-6b" x="380.499924"/>
      <use xlink:href="#NimbusRoman-Regular-69" x="430.499908"/>
      <use xlink:href="#NimbusRoman-Regular-6e" x="458.299896"/>
      <use xlink:href="#NimbusRoman-Regular-67" x="508.299881"/>
     </g>
    </g>
   </g>
  </g>
 </g>
 <defs>
  <clipPath id="pc20a4b08ad">
   <rect x="72.54" y="7.2" width="558" height="332.64"/>
  </clipPath>
 </defs>
</svg>
