<svg xmlns="http://www.w3.org/2000/svg" viewBox="0 0 1400 500" preserveAspectRatio="xMidYMid slice">
  <defs>
    <linearGradient id="bg" x1="0" y1="0" x2="1" y2="1" gradientUnits="objectBoundingBox">
      <stop offset="0%" stop-color="#fdfcff"/>
      <stop offset="100%" stop-color="#f0f4ff"/>
    </linearGradient>
    <filter id="soft">
      <feGaussianBlur stdDeviation="40"/>
    </filter>
    <radialGradient id="b1" cx="50%" cy="50%" r="50%">
      <stop offset="0%" stop-color="#a78bfa" stop-opacity="0.2"/>
      <stop offset="100%" stop-color="#a78bfa" stop-opacity="0"/>
    </radialGradient>
    <radialGradient id="b2" cx="50%" cy="50%" r="50%">
      <stop offset="0%" stop-color="#818cf8" stop-opacity="0.18"/>
      <stop offset="100%" stop-color="#818cf8" stop-opacity="0"/>
    </radialGradient>
    <radialGradient id="b3" cx="50%" cy="50%" r="50%">
      <stop offset="0%" stop-color="#34d399" stop-opacity="0.18"/>
      <stop offset="100%" stop-color="#34d399" stop-opacity="0"/>
    </radialGradient>
    <radialGradient id="b4" cx="50%" cy="50%" r="50%">
      <stop offset="0%" stop-color="#60a5fa" stop-opacity="0.16"/>
      <stop offset="100%" stop-color="#60a5fa" stop-opacity="0"/>
    </radialGradient>
    <radialGradient id="b5" cx="50%" cy="50%" r="50%">
      <stop offset="0%" stop-color="#2dd4bf" stop-opacity="0.18"/>
      <stop offset="100%" stop-color="#2dd4bf" stop-opacity="0"/>
    </radialGradient>
    <radialGradient id="b6" cx="50%" cy="50%" r="50%">
      <stop offset="0%" stop-color="#f472b6" stop-opacity="0.14"/>
      <stop offset="100%" stop-color="#f472b6" stop-opacity="0"/>
    </radialGradient>
  </defs>

  <!-- Background -->
  <rect width="1400" height="500" fill="url(#bg)"/>

  <!-- Visual cortex blobs — clustered on left and right edges -->
  <!-- Left edge -->
  <ellipse cx="-20"  cy="120" rx="280" ry="230" fill="url(#b1)" filter="url(#soft)"/>
  <ellipse cx="60"   cy="390" rx="240" ry="190" fill="url(#b2)" filter="url(#soft)"/>
  <ellipse cx="180"  cy="260" rx="180" ry="160" fill="url(#b6)" filter="url(#soft)"/>
  <!-- Right edge -->
  <ellipse cx="1420" cy="130" rx="280" ry="230" fill="url(#b3)" filter="url(#soft)"/>
  <ellipse cx="1340" cy="400" rx="240" ry="190" fill="url(#b5)" filter="url(#soft)"/>
  <ellipse cx="1200" cy="250" rx="180" ry="160" fill="url(#b4)" filter="url(#soft)"/>

  <!-- Neural edges -->
  <g stroke="#c4b5fd" stroke-width="0.9" opacity="0.25" fill="none">
    <!-- L1 -> L2 -->
    <line x1="80"  y1="100" x2="250" y2="80"/>
    <line x1="80"  y1="100" x2="280" y2="180"/>
    <line x1="100" y1="200" x2="250" y2="80"/>
    <line x1="100" y1="200" x2="280" y2="180"/>
    <line x1="100" y1="200" x2="240" y2="280"/>
    <line x1="70"  y1="300" x2="280" y2="180"/>
    <line x1="70"  y1="300" x2="240" y2="280"/>
    <line x1="70"  y1="300" x2="270" y2="380"/>
    <line x1="110" y1="400" x2="240" y2="280"/>
    <line x1="110" y1="400" x2="270" y2="380"/>
    <line x1="110" y1="400" x2="300" y2="450"/>
    <!-- L2 -> L3 -->
    <line x1="250" y1="80"  x2="430" y2="120"/>
    <line x1="250" y1="80"  x2="460" y2="220"/>
    <line x1="280" y1="180" x2="430" y2="120"/>
    <line x1="280" y1="180" x2="460" y2="220"/>
    <line x1="280" y1="180" x2="440" y2="320"/>
    <line x1="240" y1="280" x2="460" y2="220"/>
    <line x1="240" y1="280" x2="440" y2="320"/>
    <line x1="240" y1="280" x2="420" y2="420"/>
    <line x1="270" y1="380" x2="440" y2="320"/>
    <line x1="270" y1="380" x2="420" y2="420"/>
    <line x1="300" y1="450" x2="420" y2="420"/>
    <!-- L3 -> L4 -->
    <line x1="430" y1="120" x2="620" y2="80"/>
    <line x1="430" y1="120" x2="640" y2="180"/>
    <line x1="460" y1="220" x2="620" y2="80"/>
    <line x1="460" y1="220" x2="640" y2="180"/>
    <line x1="460" y1="220" x2="600" y2="280"/>
    <line x1="440" y1="320" x2="640" y2="180"/>
    <line x1="440" y1="320" x2="600" y2="280"/>
    <line x1="440" y1="320" x2="630" y2="380"/>
    <line x1="420" y1="420" x2="600" y2="280"/>
    <line x1="420" y1="420" x2="630" y2="380"/>
    <!-- L4 -> L5 -->
    <line x1="620" y1="80"  x2="800" y2="100"/>
    <line x1="620" y1="80"  x2="820" y2="220"/>
    <line x1="640" y1="180" x2="800" y2="100"/>
    <line x1="640" y1="180" x2="820" y2="220"/>
    <line x1="640" y1="180" x2="790" y2="340"/>
    <line x1="600" y1="280" x2="820" y2="220"/>
    <line x1="600" y1="280" x2="790" y2="340"/>
    <line x1="600" y1="280" x2="810" y2="440"/>
    <line x1="630" y1="380" x2="790" y2="340"/>
    <line x1="630" y1="380" x2="810" y2="440"/>
    <!-- L5 -> L6 -->
    <line x1="800" y1="100" x2="980" y2="80"/>
    <line x1="800" y1="100" x2="1000" y2="200"/>
    <line x1="820" y1="220" x2="980" y2="80"/>
    <line x1="820" y1="220" x2="1000" y2="200"/>
    <line x1="820" y1="220" x2="970"  y2="300"/>
    <line x1="790" y1="340" x2="1000" y2="200"/>
    <line x1="790" y1="340" x2="970"  y2="300"/>
    <line x1="790" y1="340" x2="990"  y2="420"/>
    <line x1="810" y1="440" x2="970"  y2="300"/>
    <line x1="810" y1="440" x2="990"  y2="420"/>
    <!-- L6 -> L7 -->
    <line x1="980"  y1="80"  x2="1150" y2="120"/>
    <line x1="980"  y1="80"  x2="1160" y2="240"/>
    <line x1="1000" y1="200" x2="1150" y2="120"/>
    <line x1="1000" y1="200" x2="1160" y2="240"/>
    <line x1="1000" y1="200" x2="1140" y2="360"/>
    <line x1="970"  y1="300" x2="1160" y2="240"/>
    <line x1="970"  y1="300" x2="1140" y2="360"/>
    <line x1="990"  y1="420" x2="1160" y2="240"/>
    <line x1="990"  y1="420" x2="1140" y2="360"/>
    <!-- L7 -> L8 -->
    <line x1="1150" y1="120" x2="1300" y2="150"/>
    <line x1="1150" y1="120" x2="1320" y2="280"/>
    <line x1="1160" y1="240" x2="1300" y2="150"/>
    <line x1="1160" y1="240" x2="1320" y2="280"/>
    <line x1="1160" y1="240" x2="1310" y2="400"/>
    <line x1="1140" y1="360" x2="1320" y2="280"/>
    <line x1="1140" y1="360" x2="1310" y2="400"/>
  </g>

  <!-- Neural nodes — colour progresses like a spectrum across layers -->
  <g opacity="0.75">
    <!-- L1: purple -->
    <circle cx="80"  cy="100" r="6" fill="#7c3aed"/>
    <circle cx="100" cy="200" r="6" fill="#7c3aed"/>
    <circle cx="70"  cy="300" r="6" fill="#7c3aed"/>
    <circle cx="110" cy="400" r="5" fill="#7c3aed"/>
    <!-- L2: indigo -->
    <circle cx="250" cy="80"  r="6" fill="#6366f1"/>
    <circle cx="280" cy="180" r="6" fill="#6366f1"/>
    <circle cx="240" cy="280" r="6" fill="#6366f1"/>
    <circle cx="270" cy="380" r="6" fill="#6366f1"/>
    <circle cx="300" cy="450" r="5" fill="#6366f1"/>
    <!-- L3: blue -->
    <circle cx="430" cy="120" r="6" fill="#3b82f6"/>
    <circle cx="460" cy="220" r="6" fill="#3b82f6"/>
    <circle cx="440" cy="320" r="6" fill="#3b82f6"/>
    <circle cx="420" cy="420" r="5" fill="#3b82f6"/>
    <!-- L4: sky -->
    <circle cx="620" cy="80"  r="7" fill="#0ea5e9"/>
    <circle cx="640" cy="180" r="7" fill="#0ea5e9"/>
    <circle cx="600" cy="280" r="7" fill="#0ea5e9"/>
    <circle cx="630" cy="380" r="6" fill="#0ea5e9"/>
    <!-- L5: teal -->
    <circle cx="800" cy="100" r="6" fill="#14b8a6"/>
    <circle cx="820" cy="220" r="6" fill="#14b8a6"/>
    <circle cx="790" cy="340" r="6" fill="#14b8a6"/>
    <circle cx="810" cy="440" r="5" fill="#14b8a6"/>
    <!-- L6: emerald -->
    <circle cx="980"  cy="80"  r="6" fill="#10b981"/>
    <circle cx="1000" cy="200" r="6" fill="#10b981"/>
    <circle cx="970"  cy="300" r="6" fill="#10b981"/>
    <circle cx="990"  cy="420" r="5" fill="#10b981"/>
    <!-- L7: lime -->
    <circle cx="1150" cy="120" r="6" fill="#84cc16"/>
    <circle cx="1160" cy="240" r="6" fill="#84cc16"/>
    <circle cx="1140" cy="360" r="6" fill="#84cc16"/>
    <!-- L8: amber -->
    <circle cx="1300" cy="150" r="6" fill="#f59e0b"/>
    <circle cx="1320" cy="280" r="7" fill="#f59e0b"/>
    <circle cx="1310" cy="400" r="5" fill="#f59e0b"/>
  </g>
</svg>
